<svg width="102" height="44" viewBox="0 0 102 44" fill="none" xmlns="http://www.w3.org/2000/svg">
<path fill-rule="evenodd" clip-rule="evenodd" d="M13.6224 0.283203H0V16.5544V43.4207H13.6224V32.611C14.4844 32.7521 15.3692 32.8255 16.2712 32.8255C25.2575 32.8255 32.5423 25.5407 32.5423 16.5544C32.5423 7.56805 25.2575 0.283203 16.2712 0.283203C15.3692 0.283203 14.4844 0.356591 13.6224 0.497722V0.283203Z" fill="url(#paint0_linear)"/>
<g filter="url(#filter0_d)">
<path d="M24.5722 12.2549L12.6519 24.1919L5.97656 17.555L8.69442 14.8811L12.6519 18.7964L21.8544 9.58105L24.5722 12.2549Z" fill="white"/>
</g>
<path d="M48.3175 20.4117C48.3175 20.6903 48.1694 20.8435 47.873 20.8714C47.7601 20.8853 47.6119 20.8922 47.4284 20.8922C47.245 20.8922 47.1391 20.8922 47.1109 20.8922C45.4315 20.8922 44.1331 20.4535 43.2158 19.576C42.2985 18.7125 41.8398 17.3336 41.8398 15.4394C41.8398 14.9937 41.854 14.534 41.8822 14.0605C41.9245 13.573 41.9669 13.1691 42.0092 12.8487C42.0515 12.5562 42.2209 12.41 42.5173 12.41C42.5314 12.41 42.616 12.41 42.7713 12.41C42.9406 12.3961 43.117 12.3891 43.3005 12.3891C43.4981 12.3752 43.6815 12.3682 43.8509 12.3682C44.0344 12.3682 44.1543 12.3682 44.2108 12.3682C44.0132 12.0479 43.8438 11.6718 43.7027 11.24C43.5757 10.7943 43.5122 10.3138 43.5122 9.79846V9.40151C43.5122 8.55189 43.6674 7.84156 43.9779 7.2705C44.3025 6.68552 44.7259 6.21893 45.248 5.87072C45.7843 5.50859 46.3912 5.25092 47.0686 5.09771C47.7601 4.93057 48.4798 4.847 49.2278 4.847C49.7359 4.847 50.1945 4.86789 50.6038 4.90968C51.0131 4.95146 51.4576 5.01414 51.9374 5.09771C52.0927 5.12557 52.2126 5.16735 52.2973 5.22306C52.3961 5.27877 52.4455 5.37627 52.4455 5.51555V7.45853C52.4455 7.72317 52.3044 7.85549 52.0221 7.85549C52.008 7.85549 51.9939 7.85549 51.9798 7.85549C51.5564 7.82763 51.1754 7.80674 50.8366 7.79281C50.4979 7.77888 50.1169 7.77192 49.6935 7.77192C48.7198 7.77192 47.9859 7.92513 47.492 8.23155C47.0121 8.53797 46.7722 9.08813 46.7722 9.88203V10.0701C46.7722 10.6272 46.8781 11.0938 47.0897 11.4698C47.3155 11.8459 47.5696 12.0896 47.8518 12.2011H52.382C52.6642 12.2011 52.8054 12.3334 52.8054 12.598V15.0424C52.8054 15.1538 52.763 15.2513 52.6783 15.3349C52.6078 15.4046 52.509 15.4394 52.382 15.4394H46.5817C46.3982 15.4394 46.1583 15.4394 45.8619 15.4394C45.5656 15.4394 45.3186 15.4463 45.121 15.4603C45.121 15.5299 45.121 15.6204 45.121 15.7319C45.1351 15.8572 45.1422 15.9478 45.1422 16.0035C45.2128 17.4381 45.9466 18.1554 47.3438 18.1554H47.873C48.1694 18.1554 48.3175 18.2877 48.3175 18.5523V20.4117Z" fill="#022A3B"/>
<path d="M58.0779 10.279C58.0779 10.9615 58.219 11.4698 58.5013 11.8041C58.7977 12.1384 59.2916 12.3055 59.9831 12.3055H61.2744V7.87638C61.1192 7.86245 60.9569 7.85549 60.7875 7.85549C60.6182 7.84156 60.4559 7.83459 60.3007 7.83459C59.5809 7.83459 59.0305 8.03655 58.6495 8.44047C58.2684 8.84438 58.0779 9.39455 58.0779 10.091V10.279ZM55.6647 18.0091C55.6647 17.7584 55.7917 17.6331 56.0457 17.6331H58.0567C58.6071 17.6331 59.0729 17.6052 59.4539 17.5495C59.8491 17.5077 60.1736 17.4241 60.4277 17.2988C60.6817 17.1734 60.8652 16.9993 60.9781 16.7765C61.1051 16.5536 61.1827 16.2751 61.2109 15.9408V15.4394H60.0678C58.4448 15.4394 57.1818 15.0424 56.2786 14.2485C55.3753 13.4407 54.9237 12.2568 54.9237 10.6968V10.3417C54.9237 8.58671 55.4318 7.24961 56.4479 6.33035C57.4781 5.39716 58.967 4.93057 60.9146 4.93057C61.1827 4.93057 61.4791 4.9445 61.8037 4.97235C62.1282 4.98628 62.4387 5.00718 62.7351 5.03503C63.0315 5.06289 63.3066 5.09771 63.5607 5.13949C63.8147 5.18128 64.0123 5.23003 64.1534 5.28574C64.2945 5.35538 64.3933 5.41806 64.4498 5.47377C64.5062 5.51555 64.5344 5.59216 64.5344 5.70358V12.2011H66.3761V15.4394H64.4709V16.087C64.3863 16.9924 64.1746 17.7306 63.8359 18.3016C63.4972 18.8866 63.0667 19.3393 62.5446 19.6596C62.0365 19.98 61.4508 20.1958 60.7875 20.3073C60.1384 20.4326 59.461 20.4953 58.7553 20.4953C58.6424 20.4953 58.4519 20.4953 58.1838 20.4953C57.9156 20.4953 57.6334 20.4883 57.337 20.4744C57.0548 20.4605 56.7796 20.4465 56.5114 20.4326C56.2574 20.4187 56.081 20.3978 55.9822 20.3699C55.8552 20.3421 55.7705 20.2933 55.7282 20.2237C55.6858 20.1541 55.6647 20.0635 55.6647 19.9521V18.0091Z" fill="#022A3B"/>
<path d="M65.5256 12.4309C65.5256 12.3612 65.6103 12.3055 65.7796 12.2637C65.9349 12.222 66.076 12.2011 66.203 12.2011H68.2987C67.833 11.7136 67.6001 10.9545 67.6001 9.92382V9.58954C67.6001 8.78171 67.7413 8.07834 68.0235 7.47942C68.3058 6.86659 68.7009 6.35821 69.209 5.95429C69.7312 5.55037 70.345 5.25092 71.0507 5.05592C71.7704 4.86093 72.5607 4.76343 73.4216 4.76343C73.718 4.76343 74.0426 4.77736 74.3954 4.80522C74.7482 4.81915 75.0869 4.84004 75.4115 4.86789C75.7502 4.89575 76.0536 4.93754 76.3218 4.99325C76.604 5.03503 76.8298 5.07682 76.9992 5.1186C77.1544 5.16039 77.2532 5.2161 77.2955 5.28574C77.352 5.35538 77.3802 5.44591 77.3802 5.55734V11.1774C77.3802 11.6927 77.3731 12.2986 77.359 12.995C77.3449 13.6914 77.3096 14.346 77.2532 14.9588C77.2391 15.0981 77.1826 15.1956 77.0838 15.2513C76.9992 15.3071 76.8863 15.3419 76.7451 15.3558C76.1383 15.3837 75.5526 15.4046 74.9881 15.4185C74.4377 15.4324 73.8732 15.4394 73.2946 15.4394H66.203C66.076 15.4394 65.9349 15.4185 65.7796 15.3767C65.6103 15.3349 65.5256 15.2792 65.5256 15.2096V12.4309ZM70.8602 10.0701C70.8602 10.7943 71.0154 11.3515 71.3259 11.7414C71.6505 12.1175 72.1515 12.3055 72.8289 12.3055C72.8994 12.3055 72.9912 12.3055 73.1041 12.3055C73.2311 12.3055 73.3581 12.3055 73.4851 12.3055C73.6121 12.3055 73.7321 12.3055 73.845 12.3055C73.9579 12.2916 74.0496 12.2777 74.1202 12.2637V7.66746C73.7956 7.62567 73.4428 7.60478 73.0617 7.60478C71.594 7.60478 70.8602 8.30815 70.8602 9.7149V10.0701ZM71.093 0.480522C71.093 0.34124 71.1424 0.229815 71.2412 0.146245C71.34 0.0487484 71.4599 0 71.6011 0H73.7603C73.8873 0 73.9932 0.0487484 74.0778 0.146245C74.1766 0.229815 74.226 0.34124 74.226 0.480522V2.46528C74.226 2.59064 74.1766 2.70206 74.0778 2.79956C73.9932 2.88313 73.8803 2.92491 73.7391 2.92491H71.6011C71.4458 2.92491 71.3188 2.88313 71.22 2.79956C71.1354 2.70206 71.093 2.59064 71.093 2.46528V0.480522Z" fill="#022A3B"/>
<path d="M79.8335 12.598C79.8335 12.4866 79.8758 12.3961 79.9605 12.3264C80.0452 12.2429 80.144 12.2011 80.2569 12.2011H85.5491L85.5068 10.7177C85.4785 10.272 85.4009 9.86811 85.2739 9.50597C85.161 9.12991 84.9705 8.81653 84.7023 8.56582C84.4483 8.30119 84.1026 8.09923 83.6651 7.95995C83.2276 7.80674 82.6842 7.73013 82.0351 7.73013C81.9927 7.73013 81.9151 7.73013 81.8022 7.73013C81.6893 7.73013 81.5623 7.73013 81.4211 7.73013C81.2941 7.73013 81.1601 7.7371 81.0189 7.75102C80.8919 7.75102 80.7931 7.75799 80.7226 7.77192C80.4685 7.77192 80.3415 7.66049 80.3415 7.43764V5.47377C80.3415 5.36234 80.3768 5.26485 80.4474 5.18128C80.5179 5.08378 80.6238 5.02807 80.7649 5.01414C81.1742 4.9445 81.5976 4.90271 82.0351 4.88879C82.4725 4.86093 82.7971 4.847 83.0088 4.847C84.1096 4.847 85.0128 5.0211 85.7184 5.36931C86.4382 5.70358 87.0168 6.14929 87.4543 6.70641C87.8918 7.24961 88.2023 7.87638 88.3857 8.58671C88.5692 9.28312 88.6821 9.99346 88.7244 10.7177L88.7668 12.2011H90.0369V15.4394H80.2569C80.144 15.4394 80.0452 15.4046 79.9605 15.3349C79.8758 15.2653 79.8335 15.1747 79.8335 15.0633V12.598Z" fill="#022A3B"/>
<path d="M94.7422 10.7595C94.7422 11.0381 94.7634 11.3027 94.8057 11.5534C94.9045 11.9991 95.1021 12.3055 95.3984 12.4727C95.6948 12.6398 96.0688 12.7234 96.5204 12.7234C97.099 12.7234 97.5295 12.5771 97.8117 12.2846C98.1081 11.9922 98.2563 11.4629 98.2563 10.6968V9.88203C98.2563 9.12991 98.1151 8.60064 97.8329 8.29422C97.5506 7.97388 97.1131 7.8137 96.5204 7.8137C95.9277 7.8137 95.4831 7.97388 95.1868 8.29422C94.8904 8.60064 94.7422 9.12991 94.7422 9.88203V10.7595ZM89.1959 12.4309C89.1959 12.3612 89.2806 12.3055 89.45 12.2637C89.6052 12.222 89.7463 12.2011 89.8734 12.2011H90.5084C90.6919 12.2011 90.8895 12.1802 91.1011 12.1384C91.3269 12.0827 91.4681 11.9434 91.5245 11.7206C91.5528 11.6509 91.5669 11.5882 91.5669 11.5325C91.5669 11.4629 91.5669 11.3932 91.5669 11.3236V9.77757C91.5669 8.98367 91.6868 8.29422 91.9267 7.70924C92.1808 7.11033 92.5265 6.61588 92.964 6.22589C93.4015 5.82197 93.9237 5.52252 94.5305 5.32752C95.1515 5.1186 95.8289 5.01414 96.5627 5.01414C97.2966 5.01414 97.9599 5.11164 98.5526 5.30663C99.1595 5.50163 99.6746 5.79412 100.098 6.18411C100.521 6.57409 100.846 7.06158 101.072 7.64656C101.312 8.23155 101.432 8.92099 101.432 9.7149V10.9893C101.432 11.8111 101.312 12.5145 101.072 13.0994C100.846 13.6844 100.521 14.1719 100.098 14.5619C99.6746 14.9519 99.1595 15.2374 98.5526 15.4185C97.9458 15.5995 97.2684 15.6901 96.5204 15.6901C96.1817 15.6901 95.8359 15.6692 95.4831 15.6274C95.1303 15.5995 94.7916 15.5438 94.467 15.4603C94.1424 15.3767 93.839 15.2722 93.5567 15.1469C93.2886 15.0215 93.0699 14.8753 92.9005 14.7081C92.59 14.9867 92.216 15.1817 91.7786 15.2931C91.3411 15.3906 90.826 15.4394 90.2332 15.4394H89.8734C89.7463 15.4394 89.6052 15.4185 89.45 15.3767C89.2806 15.3349 89.1959 15.2792 89.1959 15.2096V12.4309Z" fill="#022A3B"/>
<path d="M41.7139 26.0078H48.0231C52.0946 26.0078 54.1304 27.9931 54.1304 31.9637C54.1304 33.9827 53.6089 35.5221 52.5657 36.5821C51.5394 37.642 50.0252 38.172 48.0231 38.172H45.1966V43.1689H41.7139V26.0078ZM47.9979 35.194C49.7308 35.194 50.5973 34.1173 50.5973 31.9637C50.5973 30.9206 50.3869 30.1635 49.9663 29.6924C49.5625 29.2213 48.9064 28.9858 47.9979 28.9858H45.1966V35.194H47.9979Z" fill="#022A3B"/>
<path d="M66.4791 40.0648H60.4728L59.7914 43.1689H56.3087L60.1699 26.0078H66.782L70.6432 43.1689H67.1605L66.4791 40.0648ZM64.0816 28.8848H62.8703L61.1289 37.0363H65.823L64.0816 28.8848Z" fill="#022A3B"/>
<path d="M76.6705 36.2288L71.3708 26.0078H75.232L78.3866 32.847L81.5412 26.0078H85.4025L80.1532 36.2288V43.1689H76.6705V36.2288Z" fill="#022A3B"/>
<path d="M94.7058 26.0078C96.6575 26.0078 98.1549 26.2854 99.198 26.8406C100.241 27.379 100.965 28.2371 101.368 29.4148C101.789 30.5925 101.999 32.2245 101.999 34.3108C101.999 36.4811 101.797 38.1972 101.394 39.4591C100.99 40.7209 100.258 41.6547 99.198 42.2604C98.1549 42.8661 96.6575 43.1689 94.7058 43.1689H88.9266V26.0078H94.7058ZM94.7058 40.1405C95.7994 40.1405 96.607 39.9218 97.1286 39.4843C97.667 39.0469 98.0119 38.4244 98.1633 37.6168C98.3315 36.7924 98.4157 35.6231 98.4157 34.1089C98.4157 32.7629 98.3315 31.745 98.1633 31.0552C97.995 30.3654 97.6501 29.8606 97.1286 29.541C96.607 29.2045 95.7994 29.0362 94.7058 29.0362H92.4093V40.1405H94.7058Z" fill="#022A3B"/>
<defs>
<filter id="filter0_d" x="1.97656" y="8.58105" width="26.5956" height="22.6108" filterUnits="userSpaceOnUse" color-interpolation-filters="sRGB">
<feFlood flood-opacity="0" result="BackgroundImageFix"/>
<feColorMatrix in="SourceAlpha" type="matrix" values="0 0 0 0 0 0 0 0 0 0 0 0 0 0 0 0 0 0 127 0"/>
<feOffset dy="3"/>
<feGaussianBlur stdDeviation="2"/>
<feColorMatrix type="matrix" values="0 0 0 0 0 0 0 0 0 0 0 0 0 0 0 0 0 0 0.1 0"/>
<feBlend mode="normal" in2="BackgroundImageFix" result="effect1_dropShadow"/>
<feBlend mode="normal" in="SourceGraphic" in2="effect1_dropShadow" result="shape"/>
</filter>
<linearGradient id="paint0_linear" x1="19.6767" y1="0.283203" x2="19.6767" y2="43.4207" gradientUnits="userSpaceOnUse">
<stop stop-color="#04D14B"/>
<stop offset="1" stop-color="#267EFD"/>
</linearGradient>
</defs>
</svg>
